<svg width="50" height="80" viewBox="0 0 50 80" fill="none" xmlns="http://www.w3.org/2000/svg">
<path d="M17.7902 78.9902C13.5565 77.2104 13.2197 76.9699 11.2472 74.4204C8.84166 71.2937 8.45677 68.7924 10.285 68.5518C11.2953 68.4075 11.3915 68.5037 11.151 69.562C10.8623 70.5241 11.2953 71.1975 13.5084 73.4584C15.3847 75.3825 16.4913 76.1521 17.2129 76.0559C18.56 75.8635 18.8006 74.9014 17.5497 74.5647C17.0205 74.4204 16.5875 73.9394 16.5875 73.4103C16.5875 72.2558 15.6734 71.3418 14.5668 71.3418C13.2678 71.3418 13.5084 70.476 15.1442 69.6582C15.9139 69.2734 16.6356 68.9367 16.7799 68.9367C16.9243 68.9367 17.2129 69.8506 17.3573 70.9089C17.5497 72.0153 18.0789 73.2659 18.56 73.6989C19.0892 74.0837 19.4741 74.8052 19.4741 75.2382C19.4741 76.2002 20.8693 77.499 22.1202 77.5952C23.8041 77.7876 24.2852 77.5952 24.2852 76.8256C24.2852 76.3926 24.5739 76.1521 24.9106 76.2964C25.1993 76.3926 25.4399 76.7294 25.3917 77.018C25.2474 77.6433 29.7698 77.2585 31.165 76.5369C31.598 76.2964 31.9829 75.5749 31.9829 74.9015C31.9829 73.6989 33.1376 73.4584 33.2338 74.6128C33.3781 75.8154 33.4743 75.8635 34.1479 74.9977C34.5328 74.4685 34.8695 73.5065 34.8695 72.8811C34.8695 72.0153 35.062 71.7747 35.6393 72.0153C36.6978 72.4001 38.959 69.9949 38.8146 68.6481C38.7184 68.0708 38.959 67.3012 39.2957 66.9163C39.6325 66.5796 40.1617 65.81 40.4504 65.329C40.7391 64.7998 41.4607 64.3188 42.038 64.2226C43.337 64.0302 43.337 63.7416 41.7975 62.3466C40.1617 60.8554 40.4985 60.5668 42.7597 61.4807C44.1549 62.0579 44.4917 62.4428 44.2511 63.0681C44.0587 63.501 43.4814 64.9922 43.0003 66.3872C42.471 67.7341 41.7494 69.1291 41.3645 69.4177C40.9796 69.7544 40.6428 70.2836 40.6428 70.6203C40.6428 71.0051 38.9108 72.9773 36.8421 75.0458C33.5706 78.3168 32.7046 78.9421 30.5396 79.4231C26.5464 80.3371 20.5807 80.1447 17.7902 78.9902Z" fill="black"/>
<path d="M21.5429 74.8534C21.3985 74.3723 20.9174 73.6027 20.5326 73.1698C19.859 72.4001 19.9071 72.3039 20.8212 72.3039C21.9759 72.3039 23.3711 74.0356 22.9862 74.9977C22.6494 75.9116 21.9278 75.8154 21.5429 74.8534Z" fill="black"/>
<path d="M28.6152 74.6129C28.6152 73.4103 29.1925 71.8229 29.6255 71.8229C29.866 71.8229 30.0585 72.5925 30.0585 73.5065C30.0585 74.661 29.8179 75.1901 29.3368 75.1901C28.9519 75.1901 28.6152 74.9015 28.6152 74.6129Z" fill="black"/>
<path d="M24.0927 72.5925C23.0343 70.6203 23.2267 69.9469 24.4776 71.2937C24.9587 71.8229 25.2474 72.6887 25.1512 73.266C25.0069 74.1799 24.9106 74.0837 24.0927 72.5925Z" fill="black"/>
<path d="M26.3058 72.2077C25.5842 71.4861 25.5361 69.8025 26.2577 69.081C26.8351 68.5037 25.5361 63.6453 24.7663 63.6453C24.5257 63.6453 24.189 64.6555 23.9965 65.8581C23.8041 67.1087 23.2749 68.5037 22.7457 69.0329C21.5429 70.2355 21.2061 69.9468 21.8797 68.2632C22.1202 67.5417 22.3608 66.2429 22.3608 65.4251C22.3608 63.8377 23.9003 60.7591 24.7182 60.7591C25.3917 60.7591 26.1134 61.8655 26.3058 63.1643C26.4021 64.0302 26.6907 64.3188 27.3643 64.2226C28.567 63.982 29.1444 65.0403 28.5189 66.2429C28.2303 66.772 27.9416 68.2632 27.7973 69.6101C27.6048 72.3039 27.1718 73.0735 26.3058 72.2077Z" fill="black"/>
<path d="M32.3197 71.9672C32.1272 71.8229 31.9829 71.0532 31.9829 70.2836C31.9829 69.081 32.0791 68.9848 32.897 69.3696C33.4262 69.6582 33.8111 70.3798 33.8111 71.1013C33.8111 72.2558 33.0413 72.6887 32.3197 71.9672Z" fill="black"/>
<path d="M35.1101 68.4557C34.7252 67.205 35.2544 63.8378 36.1685 62.058C36.8421 60.663 37.7081 60.7111 37.8043 62.1061C37.8524 62.539 38.0448 61.9618 38.2854 60.8073C38.7665 58.354 39.1033 57.873 39.6806 58.835C40.2579 59.7971 39.9212 63.3086 39.2476 63.5492C38.959 63.6454 38.7184 64.2226 38.7184 64.8479C38.7184 65.5214 38.3816 66.0505 37.7081 66.1948C36.9864 66.3872 36.794 66.772 36.8902 67.7822C37.0826 69.4658 35.5912 69.995 35.1101 68.4557Z" fill="black"/>
<path d="M13.2197 67.686C12.9311 67.0126 12.7386 66.2429 12.7386 66.0024C12.7386 65.7619 12.5462 65.5695 12.2575 65.5695C12.017 65.5695 11.7764 65.81 11.7764 66.0505C11.7764 66.3391 11.2472 66.5316 10.5736 66.5316C9.90008 66.5316 9.22653 66.8683 9.0822 67.2531C8.88976 67.6379 8.50487 67.9746 8.1681 67.9746C7.44644 67.9746 4.89657 62.4909 5.13713 61.3845C5.42579 59.8933 6.14745 60.5187 6.821 62.7795C7.59077 65.5214 8.69732 66.5316 8.21621 64.0783C7.30211 59.5085 7.97565 58.8351 10.285 62.058C11.0547 63.1643 12.2094 64.1264 12.7867 64.2226C13.4603 64.3188 13.9895 64.9441 14.4706 66.291C15.2885 68.7443 15.2885 68.9367 14.4225 68.9367C13.9895 68.9367 13.4603 68.3595 13.2197 67.686Z" fill="black"/>
<path d="M30.0585 68.2151C30.0585 67.7822 30.299 67.4936 30.5877 67.5898C30.8764 67.686 31.1169 67.9746 31.1169 68.2151C31.1169 68.4556 30.8764 68.7442 30.5877 68.8405C30.299 68.9367 30.0585 68.648 30.0585 68.2151Z" fill="black"/>
<path d="M43.1446 60.663C42.2305 59.749 42.471 59.1718 43.7219 59.5085C44.4436 59.7009 45.069 59.5566 45.2615 59.2199C45.7907 58.354 45.935 43.1535 45.4539 38.7761C45.0209 34.8316 40.2098 19.4867 38.1892 15.4461C37.0345 13.1371 37.0345 12.8004 38.3816 12.5118C38.959 12.4156 39.7768 12.127 40.258 11.9827C41.0758 11.5978 41.1721 11.7902 41.7975 14.7245C41.9899 15.4461 42.4229 16.0233 42.8078 16.0233C43.1446 16.0233 43.6257 16.2638 43.77 16.5524C44.4917 17.6588 45.935 24.5857 45.935 26.8946C45.935 28.2896 46.2237 29.9732 46.6086 30.6948C47.0416 31.4644 47.1859 32.667 47.0416 33.629C46.8972 34.543 47.0415 38.3431 47.3783 42.0952C47.8594 48.0119 47.8594 49.6955 47.1859 53.9766C46.2718 60.2781 44.9247 62.4428 43.1446 60.663ZM43.1446 22.1805C42.8078 21.8438 42.5673 21.1222 42.5673 20.545C42.5673 19.15 42.0862 17.9474 41.5569 17.9474C41.3164 17.9474 41.1239 18.2842 41.1239 18.669C41.1239 19.7272 43.0484 23.3831 43.4333 23.0464C43.5776 22.8539 43.4333 22.4691 43.1446 22.1805Z" fill="black"/>
<path d="M3.74192 59.0275C3.40514 58.4984 2.68349 55.3717 2.10616 52.0525C1.24016 47.2903 0.999607 43.7788 0.855275 34.6873C0.759053 28.3858 0.5185 22.7577 0.326058 22.1805C-0.299382 20.4969 0.0373953 15.9752 0.807167 15.4942C1.14394 15.2537 1.8656 15.0612 2.39482 15.0612C3.30892 15.1094 3.30892 15.1094 2.44293 15.7828C1.96182 16.1195 1.67316 16.7449 1.81749 17.0816C1.91371 17.4183 1.81749 18.0917 1.57694 18.5728C0.855276 19.9678 2.10616 19.5348 2.97215 18.0917C3.35703 17.3221 4.84847 16.0714 6.19557 15.2056C9.08221 13.4257 10.4774 11.4054 9.37087 10.732C7.92755 9.81801 4.27114 10.2028 2.44293 11.4535C1.48071 12.127 0.566609 12.6561 0.470388 12.6561C-0.203162 12.6561 0.374171 11.213 1.48072 10.2028C2.53915 9.19267 3.16459 9.04836 6.14745 9.09646C8.07188 9.09646 10.7661 9.28888 12.1613 9.43318C14.1819 9.7218 14.6631 9.6737 14.6631 9.09646C14.6631 8.71164 14.4225 8.32681 14.0857 8.23061C13.7971 8.1344 13.7008 7.74958 13.8933 7.46096C14.3263 6.73941 17.1648 6.73941 18.7525 7.46096C19.9071 7.99009 20.1477 7.89389 20.8693 6.97993C21.3986 6.25838 21.9759 5.96976 22.5051 6.21028C23.0824 6.40269 23.323 6.25838 23.3711 5.63304C23.3711 5.0077 23.6116 5.20011 24.189 6.30648C24.5739 7.17234 25.1993 7.79768 25.4398 7.70147C26.3539 7.41285 26.3539 5.87356 25.4398 4.91149C24.9587 4.38236 24.8625 3.99753 25.1512 3.99753C25.488 3.99753 25.7285 4.14184 25.7285 4.38236C25.7285 4.57477 26.2096 5.34442 26.8351 6.11407C27.8454 7.36475 28.0859 7.41285 29.0963 6.88372C30.0104 6.40269 30.2509 6.40269 30.6358 7.07613C31.2612 8.1825 31.9829 8.03819 31.9829 6.83562C31.9829 6.25838 31.2131 5.1039 30.299 4.28615C28.6152 2.69875 28.5189 2.07341 30.1066 2.07341C30.9245 2.07341 33.8592 5.0077 34.8695 6.83562C35.1582 7.41285 35.6874 7.84578 36.0242 7.84578C36.4091 7.84578 36.794 8.1825 36.9864 8.56733C37.1307 8.95215 37.66 9.28888 38.1411 9.28888C38.6703 9.28888 39.3438 9.6256 39.6806 10.0104C40.5947 11.1168 38.1892 12.0789 36.2648 11.3573C35.495 11.0687 34.4366 10.9244 33.9073 11.0687C33.2338 11.2611 32.9451 11.0687 32.9451 10.5396C32.9451 9.86611 32.0791 9.76991 26.8351 9.6737C18.8487 9.57749 18.56 9.57749 17.5497 10.4915C17.1167 10.8763 16.2988 11.213 15.7696 11.213C14.4706 11.213 9.75576 14.3878 6.67667 17.3221C3.54948 20.3045 3.26081 21.5071 2.58726 33.3404C2.00993 42.5762 2.05804 42.8168 3.30892 50.5133C4.65602 58.5465 4.80035 60.9516 3.74192 59.0275Z" fill="black"/>
<path d="M15.4809 58.4983C15.2885 58.354 15.1441 58.0173 15.1441 57.8249C15.1441 57.1033 20.1958 55.9489 25.7766 55.3716C33.9073 54.602 36.6015 55.6121 30.8764 57.3919C26.9794 58.5945 24.8625 58.9312 24.5738 58.4021C24.3814 58.1135 25.0068 57.7768 25.9691 57.5844C26.8832 57.44 27.7973 57.0552 27.9897 56.7666C28.3746 56.1413 21.3023 56.6223 20.0995 57.3438C19.3779 57.7768 19.4741 57.8249 20.7731 57.873C21.591 57.873 22.457 58.1135 22.6013 58.354C22.9381 58.8831 16.0101 59.0274 15.4809 58.4983Z" fill="black"/>
<path d="M11.7764 57.1995C11.7764 55.083 18.8968 49.6953 20.7731 50.3688C21.2061 50.5612 21.3986 51.1866 21.3023 52.1967C21.158 53.7842 21.1099 53.7842 18.4157 53.9285C16.395 54.0247 15.6253 54.2652 15.6253 54.7462C15.6253 55.1311 15.3366 55.6121 14.9517 55.8045C14.6149 55.9969 14.0857 56.6704 13.749 57.2957C12.9792 58.6907 11.7764 58.6907 11.7764 57.1995Z" fill="black"/>
<path d="M41.5088 57.5844C40.8353 56.959 41.124 55.4197 42.0862 54.169C42.6154 53.4955 43.0484 52.6297 43.0484 52.2929C43.0484 51.9081 43.2408 51.6195 43.4333 51.6195C43.9144 51.6195 45.502 56.959 45.1652 57.4881C44.7323 58.1616 44.1549 57.873 43.6257 56.6704C42.904 55.1311 42.1824 55.1311 41.9899 56.7185C41.8937 57.3919 41.7013 57.7768 41.5088 57.5844Z" fill="black"/>
<path d="M35.062 54.6982C34.2441 54.3614 33.33 53.7361 32.9451 53.3031C32.3678 52.6297 32.2716 52.6297 31.4537 53.3031C30.6839 54.0247 30.5877 54.0247 30.1547 53.255C29.7217 52.4854 29.5293 52.4373 28.4227 53.0145C26.8351 53.8804 25.7285 53.0626 25.7285 50.9942C25.7285 49.5991 25.7766 49.5991 27.6048 49.8878C30.3953 50.3207 36.4091 52.8221 36.9383 53.7842C37.6119 54.9868 36.7459 55.4197 35.062 54.6982Z" fill="black"/>
<path d="M16.828 48.6372C16.4912 47.1941 18.56 39.0166 19.3779 38.7279C20.0996 38.5355 20.1958 40.8445 19.4741 41.2774C18.2713 41.999 19.2336 42.48 21.8796 42.48C23.4673 42.48 24.7663 42.3838 24.7663 42.2395C24.7663 42.0952 24.5257 41.566 24.189 41.0369C22.9862 39.1128 24.3814 39.4495 26.2096 41.5179C28.5189 44.1636 30.2028 47.3384 29.6255 47.9156C29 48.541 28.1341 47.8675 28.1341 46.7612C28.1341 44.5965 22.024 42.7205 19.7628 44.1636C18.3676 45.1257 17.3572 47.3384 17.7902 48.6853C17.9827 49.2625 17.8865 49.6955 17.5978 49.6955C17.3091 49.6955 16.9723 49.2144 16.828 48.6372Z" fill="black"/>
<path d="M18.7525 47.7713C18.3676 47.146 19.7147 46.6169 20.6769 47.0017C21.0618 47.146 21.3985 47.4827 21.3985 47.7713C21.3985 48.3967 19.1373 48.3967 18.7525 47.7713Z" fill="black"/>
<path d="M23.8522 47.8194C22.9862 47.2422 23.6116 46.3282 24.9106 46.3282C26.0653 46.3282 27.5086 47.0979 27.1718 47.4827C26.6426 48.0118 24.4776 48.2524 23.8522 47.8194Z" fill="black"/>
<path d="M8.55298 39.9786C7.30211 39.4014 7.15777 38.2469 8.07188 36.9481C8.55298 36.3228 9.56331 36.0342 11.9207 35.8899C13.7008 35.7456 15.1441 35.7456 15.1441 35.8899C15.1441 36.0342 14.9517 36.7076 14.663 37.3811C14.1338 38.8242 12.5462 39.0647 11.1991 37.8621C10.4293 37.0924 10.3331 37.1405 10.0444 37.9102C9.80386 38.4393 9.99631 38.9685 10.4774 39.3533C11.9688 40.4116 10.4774 40.8926 8.55298 39.9786Z" fill="black"/>
<path d="M24.7663 38.1988C23.8522 36.4671 24.5257 33.3404 25.7766 33.3404C26.1134 33.3404 26.1615 34.0139 25.9691 35.2164C25.7766 36.3228 25.8728 37.5254 26.2096 38.1026C26.6426 38.9204 26.5945 39.1128 26.0172 39.1128C25.5842 39.1128 25.055 38.6799 24.7663 38.1988Z" fill="black"/>
<path d="M48.6773 38.7761C48.1962 37.9102 47.8594 34.7835 48.2443 34.7835C48.4849 34.7835 48.8217 35.6975 49.0141 36.7557C49.3028 38.6799 49.1584 39.5938 48.6773 38.7761Z" fill="black"/>
<path d="M16.0101 37.4292C15.8658 36.7557 15.9139 36.2266 16.1064 36.2266C16.7799 36.2266 17.6459 37.6216 17.3091 38.1507C16.7799 38.9685 16.2507 38.6799 16.0101 37.4292Z" fill="black"/>
<path d="M4.5598 36.0823C4.5598 34.1582 5.66634 33.0037 7.97566 32.5708C8.88976 32.3783 10.1406 31.9454 10.8142 31.6568C12.017 31.0315 18.2714 31.0315 18.8968 31.6568C19.0411 31.8011 18.8968 32.1378 18.5119 32.3783C17.9346 32.7151 17.9827 33.0037 18.8968 33.9657C19.9071 35.024 20.3882 37.6697 19.5703 37.6697C19.3779 37.6697 18.7044 36.6595 18.0789 35.4569L17.0205 33.1961L13.7971 33.5328C9.13032 34.0139 6.05124 35.1202 5.52202 36.5152C4.89658 38.1026 4.5598 37.9583 4.5598 36.0823Z" fill="black"/>
<path d="M27.4124 36.7076C27.2199 36.419 27.3162 35.8899 27.6529 35.5051C27.9416 35.1683 28.134 34.4468 28.0378 33.9657C27.8935 33.148 28.2303 33.0999 32.464 33.2923C37.1789 33.4366 38.1892 33.9176 38.2373 35.8899C38.2373 37.0443 36.5534 36.9481 35.7355 35.6494L35.062 34.5911L34.0036 35.6494C32.6083 37.0443 31.598 36.9962 30.9245 35.5051C30.4915 34.5911 30.2509 34.4468 29.7217 34.8316C29.3849 35.1683 29.1925 35.7937 29.3368 36.2747C29.5774 36.9481 29.3849 37.1887 28.6633 37.1887C28.134 37.1887 27.5567 36.9481 27.4124 36.7076Z" fill="black"/>
<path d="M39.6806 32.1378C38.7184 31.1277 38.093 30.9352 35.8799 30.9352C33.1857 30.9352 28.3746 31.5606 26.3539 32.1859C25.4398 32.4264 25.2474 32.2821 25.2474 31.5125C25.2474 29.9251 26.2577 29.5403 31.6942 29.0592C37.7081 28.482 39.5844 28.963 40.8353 31.3682C42.0861 33.7733 41.5569 34.1101 39.6806 32.1378Z" fill="black"/>
<path d="M2.92403 6.97992C2.44292 6.21027 3.2127 5.92165 7.10967 5.63303C9.65953 5.39252 10.7661 5.48872 11.0548 5.87355C11.2472 6.21027 11.2472 6.59509 11.1029 6.7394C10.5736 7.31664 3.26081 7.50905 2.92403 6.97992Z" fill="black"/>
<path d="M5.52202 4.52667C5.52202 3.99753 7.49455 3.37219 11.9689 2.60254C16.1545 1.83289 16.9724 1.9291 18.3195 3.37219C19.7628 4.91149 19.5222 5.34442 17.8384 4.23805C16.5875 3.4203 14.4225 3.5165 7.10967 4.81528C6.14745 4.95959 5.52202 4.86339 5.52202 4.52667Z" fill="black"/>
<path d="M21.3023 2.79495C20.5807 2.16961 18.8006 1.39996 17.261 1.11134C15.6253 0.774622 14.7112 0.389797 14.9998 0.101179C15.4328 -0.331749 22.2645 0.726519 23.323 1.35186C24.0446 1.78479 23.9003 3.99753 23.2268 3.99753C22.89 3.99753 22.024 3.46839 21.3023 2.79495Z" fill="black"/>
</svg>
