<svg xmlns="http://www.w3.org/2000/svg" viewBox="0 0 500 474.07"><defs><style>.cls-1{fill:#f4eddc;}.cls-2{fill:#f6f6f6;}.cls-3{fill:#f2f2f2;}.cls-4{fill:#dadada;}.cls-5{fill:#c5e5ea;}.cls-6{fill:#b6d8db;}.cls-7{fill:#e3e3e3;}.cls-8{fill:#e5dac3;}.cls-9{fill:#ededed;}.cls-10{fill:#433119;}.cls-11{fill:#fff;}</style></defs><title>181213-Logo-Portal</title><g id="Ebene_6" data-name="Ebene 6"><path class="cls-1" d="M348.26,137.58,333.89,105s50.15-41.35,92.77-4.65,23.15,90,23.15,90-13.65,27.09-27.56,29.83c-8.55,1.69-25.84,16.06-48.93,6.57L364.73,214l-5.37-25.93Z" transform="translate(0 -12.97)"/><path class="cls-2" d="M404.13,238.08s-.25-12.93,8.1-15.19,19.95-6.45,21.27,4.78S434.23,255,421,255.39,402.17,253.92,404.13,238.08Z" transform="translate(0 -12.97)"/><path class="cls-2" d="M434.71,240.6s-.44-5,7.33-5.62,12.91-.61,14.82,5.23,5.16,12.72.85,13.88a34.37,34.37,0,0,1-16.3.71C435,253.46,434.71,240.6,434.71,240.6Z" transform="translate(0 -12.97)"/><path class="cls-2" d="M429.16,255.38s13.44,4.87,13.56-3.1c.12-7.77-17-7.13-15.46-.41S429.16,255.38,429.16,255.38Z" transform="translate(0 -12.97)"/></g><g id="f端llung_landschaft" data-name="f端llung / landschaft"><path class="cls-3" d="M341.81,122.66l-4.37-9.91-21.2-9.13-11.45,6.2S291.59,94.94,285,98c-3.93,1.78-12.35,5.62-20.46,8.94,0,0-17.59-3.52-18.62-3.58-2.54-.13-23.81-22.08-23.81-22.08L206.59,96.4l-14-12.17-28.35,24.35-7.88-7.16-24,15.75L108.77,88.53l-9.68,9.75L94,99.2,38.6,252.28c-1.43,4.91,16.77,2.53,16.77,2.53H133.9c7-19.67,33.14-54.5,33.14-54.5s7-7.21,8.36-13.48,16.4-23.53,22.19-29.72,38.67,4.34,38.67,4.34,12.4-10.76,42.49-15.5,29.71,5.59,29.71,5.59,15.61-23.87,44.57-3.46Z" transform="translate(0 -12.97)"/><polygon class="cls-4" points="117.58 86.24 38.6 239.32 93.98 86.24 97.5 85.05 103.22 81.83 108.78 75.56 117.58 86.24"/><path class="cls-5" d="M86.3,254.81c0,.8,7.79,31.82,35.52,38.83l12.08-38.83Z" transform="translate(0 -12.97)"/><path class="cls-5" d="M316.05,374.24S328.3,327.73,337,325.07s20.25-6.91,20.25-6.91l5,4.33s61.05,4.55,81,38.71c0,0-41,79.33-76.91,83.24C366.31,444.44,371.57,411.83,316.05,374.24Z" transform="translate(0 -12.97)"/><path class="cls-6" d="M86.54,257.4s-.93,3.53,3.16,2.27c9.9-3.05,24.91.83,32.12,2.5s8.74,3.37,8.74,3.37l3.34-10.73H86.3Z" transform="translate(0 -12.97)"/><path class="cls-6" d="M332.68,334s76.44,10.38,97.52,49.67l13-22.43s-15-30.55-86-39.06H336.68Z" transform="translate(0 -12.97)"/><path class="cls-7" d="M405.13,231.14s-.72,1.27.49-.39c1.61-2.21,7.56-6.77,13.59-6.53s11.58,2.4,11.81,8.81.48,13.71,1.52,13.63,4.21-16.17.51-19.63-6.5-7.1-12.41-6.3-8.23,1.64-9.25,2.42C411.39,223.15,405.86,227.81,405.13,231.14Z" transform="translate(0 -12.97)"/><path class="cls-8" d="M335.81,109.31s26.81-11.6,44.87-10.11,62.39,20.43,62,62.25-31.33,61.7-31.33,61.7,21.45,1.31,38.42-32.82-5.27-81.13-23.15-90S374.13,81.82,352.52,93s-18.63,12-18.63,12Z" transform="translate(0 -12.97)"/><path class="cls-7" d="M435.44,238.08s12.08-.74,14.68.62a15.61,15.61,0,0,1,7.7,13.05,12.86,12.86,0,0,1,0,2c-.11.36,2.77-1,2.86-3s-2.68-16.59-6.89-16.5-9.39.25-10.57.51-7.78,2.29-7.78,2.29Z" transform="translate(0 -12.97)"/><path class="cls-7" d="M427.17,250.35s.3,1.26,1.15.9,2.73-2.82,5.15-3,5.19-.24,6.5.54,2.73,1.65,2.51,1.22-2.06-3.79-7.68-3.7S427.17,250.35,427.17,250.35Z" transform="translate(0 -12.97)"/></g><g id="f端llung_frettchen" data-name="f端llung / frettchen"><path class="cls-4" d="M164.51,206.32s-21.34,47.26-23.73,73.76.53,125.4-16.68,145.64-29.21-23.53-29.21-23.53,18-23.45,20.75-58.75S125.71,235,164.51,206.32Z" transform="translate(0 -12.97)"/><path class="cls-9" d="M357.23,208.16s26.38,55.76,32.91,61.33,14-1.08,14-1.08S366,232.91,357.23,208.16Z" transform="translate(0 -12.97)"/><path class="cls-4" d="M381,287.45S348.91,329,261.56,322.32c0,0,26,11.15,41.88,10.35s81.82-18.63,94-41.22S381,287.45,381,287.45Z" transform="translate(0 -12.97)"/></g><g id="form_landschaft_Kopie" data-name="form / landschaft Kopie"><path class="cls-10" d="M254.29,105.32l9.61,3.05.28.09.37-.14L285.9,99.7l17.36,12.42,1.28.91,1.56-.78,10.31-5.16,15.66,6,5.42,2.07,10.12,20.62-9.13-22.71-1.82-4.72c-.5-1.3-1.07-2.55-1.61-3.83A77.4,77.4,0,0,1,384.71,90a72.72,72.72,0,0,1,68.07,72.46A77.69,77.69,0,0,1,433,214c15.39-11.85,25.4-31.12,26.54-51.28a74.76,74.76,0,0,0-4.27-29.89,75,75,0,0,0-40.75-43.35,74.61,74.61,0,0,0-29.56-6.12,70.82,70.82,0,0,0-50.13,20.54A129.59,129.59,0,0,0,320.38,78a67.1,67.1,0,0,0-5.66-6.8,9.36,9.36,0,0,0-.91-.92A10.41,10.41,0,0,0,312,69a17.71,17.71,0,0,0-1.82-.73L308.55,68a19,19,0,0,0-5.49.25c-6.4,1.27-11.58,3.69-16.81,6.12-10.28,5-19.87,10.91-29.39,16.71l-7.05,4.36-3.44,2,0,0-.1,0a28.64,28.64,0,0,1-5.82-4c-2-1.68-4-3.51-6-5.39-15.6-15.33-30-32.42-44.64-49.14l-11-12.59L173.26,20a80.71,80.71,0,0,0-6-6.36l-.42-.3A2.39,2.39,0,0,0,165.3,13a3.75,3.75,0,0,0-1.35.48,8.28,8.28,0,0,0-1.12.87c-.62.56-1.09,1.1-1.6,1.65-1,1.09-1.87,2.19-2.75,3.3-1.75,2.22-3.42,4.46-5.07,6.72l-9.84,13.54c-6.59,8.93-13,18.24-20.1,26.48,0,0-.1.11-.16.16l-.46-.71-2.12-3.56c-1.43-2.4-2.86-4.81-4.54-7.18-.44-.59-.88-1.18-1.39-1.77a6.48,6.48,0,0,0-2.24-1.82,2.37,2.37,0,0,0-3.17,1.19l-.46,1-.84,2-3.2,7.74c-8.38,20.67-16.84,41.3-24.44,62.24-15.12,41.91-29.62,84-42.26,126.84l.82.29c17.67-41,33.48-82.63,48.67-124.51,3.14-8.72,6.11-17.5,9-26.3l1.19-1.09c3.62-3.32,7.18-6.7,10.71-10.1L119.23,104l11.61,14.49,1.13,1.41,1.55-1,22.66-14.76,6.69,6,1.37,1.24,1.39-1.2q13.63-11.85,27-24c4.42,3.66,8.82,7.35,13.28,11l.74.6.6-.64c4-4.32,8.1-8.6,12.1-13,3,3.31,6,6.62,9.19,9.84,2,2,4.08,4,6.3,5.94a35.81,35.81,0,0,0,7.87,5.48,10.14,10.14,0,0,0,3.56.94,13,13,0,0,0,1.4-.07,8,8,0,0,0,1.65-.5l1.16-.57c1.34-.7,2.6-1.4,3.83-2.11l7.25-4.26c9.52-5.74,19-11.44,28.7-16.28,4.78-2.37,9.83-4.67,14.36-5.63a10.57,10.57,0,0,1,2.82-.25,1.67,1.67,0,0,0,.39,0s.06.05.11,0,.34.35.49.49a73.86,73.86,0,0,1,5.17,5.91,120.91,120.91,0,0,1,12.75,20.41l-9.07-3-1.44-.47-1.15.67-9.89,5.79L287.29,95.72l-1-.63-.94.48L264,106.42M206.6,95.07c-4.3-4-8.67-8-13-12l-.92-.84-1,.84c-9.2,7.45-18.28,15.05-27.31,22.71l-6.51-6-1.22-1.12-1.39.91-22.43,14.86L122,101.73l-12.18-14-1-1.1-1,1Q102.76,93,97.79,98.45c3.75-11.28,7.43-22.59,11.23-33.85l2.68-7.89.51-1.42,0,0c.42.44.84.95,1.25,1.47,1.63,2.1,3.14,4.43,4.65,6.76l2.3,3.52A13.54,13.54,0,0,0,121.91,69l.19.18a2.13,2.13,0,0,0,.66.32,2.08,2.08,0,0,0,1.12-.16,2.82,2.82,0,0,0,.77-.53,11.33,11.33,0,0,0,.85-.85c3.79-4.36,6.93-8.87,10.3-13.34l10-13.39c3.38-4.42,6.75-8.85,10.22-13.17,1.75-2.15,3.53-4.28,5.34-6.35.9-1,1.82-2,2.75-3,.39-.37.79-.76,1.18-1.08,1.39,1.52,3,3.55,4.44,5.34l5.14,6.56,10.22,13.22c11,13.95,22,27.85,34,41.13C214.91,87.57,210.76,91.33,206.6,95.07Z" transform="translate(0 -12.97)"/><path class="cls-10" d="M92.25,267.5a48.13,48.13,0,0,1-6-11.89c-.39,4.65,1,9.34,3,13.55a42.66,42.66,0,0,0,8.24,11.4,50.28,50.28,0,0,0,11.28,8.25,45.12,45.12,0,0,0,12.95,4.83c-7.66-5-15-10-21.21-16.14A67,67,0,0,1,92.25,267.5Z" transform="translate(0 -12.97)"/><path class="cls-10" d="M352.48,405.19a112.45,112.45,0,0,0-15.43-16.31A110,110,0,0,0,319,375.79c5.47,5,10.67,10.26,15.78,15.51a183.5,183.5,0,0,1,14.33,16.52,97.56,97.56,0,0,1,11.55,18.28A56.32,56.32,0,0,1,366.2,447c1.34-7.36.17-15.15-2.48-22.24S357,411.19,352.48,405.19Z" transform="translate(0 -12.97)"/><path class="cls-10" d="M427.33,344.51a99.37,99.37,0,0,0-22.49-13,130.43,130.43,0,0,0-24.93-7.31,118.35,118.35,0,0,0-25.8-2,163.65,163.65,0,0,1,25.47,3.65A143.11,143.11,0,0,1,404,333.46a105.8,105.8,0,0,1,22.32,12.37l5.1,3.88c1.63,1.38,3.13,2.9,4.72,4.34l2.37,2.17,2.13,2.41,4.28,4.84C440,356.43,434.3,349.74,427.33,344.51Z" transform="translate(0 -12.97)"/><path class="cls-10" d="M430.33,354.37a36,36,0,0,0-13.92-6.31,133.38,133.38,0,0,1,12.66,8.05c2,1.42,3.94,3,5.85,4.59s3.66,3.37,5.55,5.11A32.76,32.76,0,0,0,430.33,354.37Z" transform="translate(0 -12.97)"/><path class="cls-10" d="M447.68,168.45a130,130,0,0,1-3.48,14.6c-.68,2.38-1.54,4.7-2.42,7s-2,4.56-3,6.92a32.76,32.76,0,0,0,7.5-13.32A36.21,36.21,0,0,0,447.68,168.45Z" transform="translate(0 -12.97)"/><path class="cls-10" d="M457.51,236.18a9.67,9.67,0,0,0-5.38-3.5,15.19,15.19,0,0,0-5.92-.11,23.26,23.26,0,0,0-9.52,4c.17-4.72-.43-9.65-3.56-14.13a11.62,11.62,0,0,0-4.07-3.26,12.07,12.07,0,0,0-5-1,27.68,27.68,0,0,0-8.92,1.68c-5.78,2.08-10.42,7.58-10.56,13.42A16.5,16.5,0,0,1,416.18,223a29.34,29.34,0,0,1,7.84-.79,7,7,0,0,1,5.71,2.83c2.81,3.73,3.35,9.55,3.34,14.91a55.63,55.63,0,0,1-.46,5.88,10.29,10.29,0,0,0-3.36.83,5.15,5.15,0,0,0,0,9.82,11.51,11.51,0,0,0,5.54.92,11.77,11.77,0,0,0,5.18-1.6,5.27,5.27,0,0,0,2.88-4.23,4.73,4.73,0,0,1-3,4,10.39,10.39,0,0,1-5,.8c-3.24-.2-6.93-2.18-7-4.76s3.74-4.54,7-4.75a10.5,10.5,0,0,1,5,.79,4.74,4.74,0,0,1,3,4,5.26,5.26,0,0,0-2.88-4.22,11.36,11.36,0,0,0-4.75-1.53,38.63,38.63,0,0,0,1.2-5.63c.11-1.11.19-2.23.24-3.37a74.22,74.22,0,0,1,9.81-.81c3.33.09,6.15.65,7.75,2.91a20,20,0,0,1,4.38,8.3c.27,1.5.88,3.52.51,4.58-.46,1.29-2,2.38-3.65,3a6,6,0,0,0,5.16-2.17,5.89,5.89,0,0,0,.87-3,16.09,16.09,0,0,0,.17-2.8A17.31,17.31,0,0,0,457.51,236.18Z" transform="translate(0 -12.97)"/></g><g id="form_umrandung" data-name="form / umrandung"><path class="cls-10" d="M105.87,254.81c-15.15-.9-30.29-.95-45.43-1.07-15.15.12-30.29.18-45.44,1.07,15.15.89,30.29.95,45.44,1.08C75.58,255.76,90.72,255.71,105.87,254.81Z" transform="translate(0 -12.97)"/><path class="cls-10" d="M500,263.42c-10.84-.89-21.68-.95-32.51-1.07-10.84.13-21.68.18-32.52,1.07,10.84.89,21.68.95,32.52,1.08l2.27,0c-2.12,27.57-8.71,54.48-20.15,79.06A219.45,219.45,0,0,1,402,410.46c-39.63,37.91-93.54,59.66-147.93,59.36-54.39.28-108.29-21.47-147.91-59.38A219.45,219.45,0,0,1,58.5,343.53C47.05,319,40.46,292,38.32,264.47l2.81,0c13.71-.13,27.42-.18,41.13-1.08-13.71-.89-27.42-.95-41.13-1.07-13.71.13-27.42.18-41.13,1.07,12.69.83,25.38.94,38.07,1.05a206,206,0,0,0,12.62,82.3,214.34,214.34,0,0,0,45.94,73.17c20.06,21.18,44.78,37.93,71.67,49.57a218.42,218.42,0,0,0,171.47,0,218.09,218.09,0,0,0,71.67-49.56,214.5,214.5,0,0,0,45.94-73.17A206.08,206.08,0,0,0,470,264.47C480,264.36,490,264.25,500,263.42Z" transform="translate(0 -12.97)"/><path class="cls-10" d="M428.32,255.7a5,5,0,0,1-.76-1.8c-1.79-.07-3.58-.15-5.37-.17a99.4,99.4,0,0,0-15.28,1.08,99.4,99.4,0,0,0,15.28,1.08C424.24,255.87,426.28,255.8,428.32,255.7Z" transform="translate(0 -12.97)"/><path class="cls-10" d="M446.32,255.28c3.54-.41,7.09-.63,10.64-.78s7.09-.2,10.63-.22,7.1.06,10.64.22,7.09.37,10.64.78c-3.55.42-7.09.64-10.64.78s-7.09.2-10.64.22-7.09-.06-10.63-.22S449.86,255.7,446.32,255.28Z" transform="translate(0 -12.97)"/></g><g id="form_frettchen" data-name="form / frettchen"><path class="cls-10" d="M314.12,147.45a37.36,37.36,0,0,1,10.42-5.39,11.13,11.13,0,0,1,8.45.6c2.43,1.19,5.26,3.84,7.58,6.73,4.77,6,8.51,13.54,11.77,21.36a246.1,246.1,0,0,1,8.52,25.07,63.91,63.91,0,0,0,1-27.78c-1.74-9.25-5-18.48-11.2-26.64-3.23-4-7-7.86-12.8-10.22a20.45,20.45,0,0,0-9.17-1.34,21.75,21.75,0,0,0-8.35,2.59,31.86,31.86,0,0,0-11,10.41,40.31,40.31,0,0,0-5.78,12.88C307.19,152.74,310.56,149.85,314.12,147.45Z" transform="translate(0 -12.97)"/><path class="cls-10" d="M196.7,165.08a1.54,1.54,0,0,0,.28-.19l.72-.32a9.87,9.87,0,0,1,1.53-.56,22.25,22.25,0,0,1,3.48-.74c5-.6,10.79.14,16.52,1.42,11.61,2.57,23.25,7.09,35.17,11.55a99.23,99.23,0,0,0-32.21-21.12c-6.2-2.34-12.87-4.26-20.42-4A27.83,27.83,0,0,0,196,152a21.36,21.36,0,0,0-2.92.91l-1.45.56c-.57.27-1.19.62-1.77,1-4,2.68-6.08,5.47-8.25,8.23-8,11.15-12.84,23.19-16.22,35.76-.34,1.31-.64,2.63-.93,4-11.29,11.41-20.34,25.06-27.93,39.29a220.12,220.12,0,0,0-19.42,54.74,271.6,271.6,0,0,0-4.38,28.78l-1.23,14.18c-.6,4.63-1.11,9.28-2,13.86a164.62,164.62,0,0,1-7,27.08c-3.21,8.77-7.09,17.42-12.88,25.11a51.72,51.72,0,0,0,10.06-10.51,81.88,81.88,0,0,0,7.69-12.48,117.89,117.89,0,0,0,9.81-27.64c2.34-9.44,3.18-19.51,4-28.81A262.26,262.26,0,0,1,125.22,298a251.53,251.53,0,0,1,16.59-53.85,205.88,205.88,0,0,1,22.08-38.87,100.09,100.09,0,0,0-1.5,12.35c-.14,6.49.19,13.24,2.74,19.21a74.33,74.33,0,0,1,3.59-18.15,166.83,166.83,0,0,1,6.37-17.05c4.81-11,10.31-22.13,16.89-31.36A26.25,26.25,0,0,1,196.7,165.08Z" transform="translate(0 -12.97)"/><path class="cls-10" d="M257,152.84c1.4-.48,2.83-.84,4.24-1.27,2.78-1,5.69-1.48,8.54-2.17a99.41,99.41,0,0,1,17.48-1.94A81.26,81.26,0,0,1,305,149a46.07,46.07,0,0,0-17.66-4.83,66.59,66.59,0,0,0-18.47,1.06,73,73,0,0,0-17.43,6.09,74.62,74.62,0,0,0-8,4.58c-2.48,1.8-4.92,3.64-7.23,5.6,5.55-2.54,11-5,16.53-7.1C254.19,153.87,255.59,153.37,257,152.84Z" transform="translate(0 -12.97)"/><path class="cls-10" d="M405.19,263.85l-2.55-1.64a50.16,50.16,0,0,1-5.28-4.84c3.11-1.73,6.26-3.4,9.41-5.09-3.61,1.09-7.15,2.4-10.65,3.8-.56-.59-1.12-1.19-1.67-1.79l-.89-1c2.44-.94,4.86-1.91,7.33-2.77,4.26-1.67,8.6-3.09,12.95-4.59a151.39,151.39,0,0,0-22.34,5c-.76-.88-1.51-1.77-2.26-2.67.65-.2,1.29-.41,1.94-.6,4.37-1.37,8.8-2.5,13.23-3.71a137.94,137.94,0,0,0-16.8,2.33l-1-1.2c-3.65-4.44-7.21-9-10.77-13.57,1-2.37.3-6.68-2-11-2.95-5.57-7.42-9-10-7.62a2.92,2.92,0,0,0-1.31,1.67c-2.14-2.75-4.29-5.5-6.5-8.21,3.48,7.53,7.53,14.74,11.55,22s8.56,14.17,13.28,21c2.38,3.42,4.89,6.76,7.55,10.06a69.14,69.14,0,0,0,6.57,7.27c-13.71-1.19-21.92,5.87-21.92,10.72s11.89,14.34,18.86,16c-.59.66-1.18,1.32-1.82,1.95a65.89,65.89,0,0,1-11.21,9.05,122.47,122.47,0,0,1-26.54,12.74c-6.58,2.17-13.26,4.12-20,5.7,0,0-5,1-5.07,1.09-1.25.25-2.51.53-3.77.76A125,125,0,0,1,294,327.59a118.37,118.37,0,0,1-16.8-1.6q5.38-6.06,11-12c3.12-3.32,6.36-6.53,9.66-9.69s6.57-6.35,9.91-9.51a162.33,162.33,0,0,0-21.86,16.83,182,182,0,0,0-13.43,13.5,138.68,138.68,0,0,1-15.32-4l.27-.22c7.19-5.52,14.8-10.48,22.44-15.44,3.82-2.48,7.73-4.84,11.68-7.12s7.89-4.61,11.89-6.89a162.12,162.12,0,0,0-25.23,11.16,182.24,182.24,0,0,0-23.37,14.85c-.83.65-1.65,1.32-2.48,2q-7.23-2.62-14.21-5.93c6.13-3.26,12.37-6.29,18.78-9,8.34-3.55,16.94-6.47,25.57-9.37,4.32-1.46,8.69-2.77,13.08-4,4.37-1.38,8.8-2.51,13.24-3.72A162,162,0,0,0,281.6,292a181.8,181.8,0,0,0-26.33,8.56,150.53,150.53,0,0,0-21.13,11,190.15,190.15,0,0,1-46.57-33.58,178,178,0,0,0,43.67,35.45c-.14.1-.3.18-.45.28-3.7,2.81-7.54,5.42-10.85,8.7a79.73,79.73,0,0,0-9.23,10.31c3.56-3,6.74-6.19,10.58-8.69a107.86,107.86,0,0,1,11.28-7.52c.69-.39,1.4-.72,2.09-1.1l.5.29c4.42,2.44,9,4.68,13.64,6.68a123,123,0,0,0-14.41,13.92c-2.89,3.64-6,7.12-8.35,11.12a79.89,79.89,0,0,0-6.37,12.28c2.71-3.76,5-7.67,8.08-11a108.33,108.33,0,0,1,9.06-10.09,213.48,213.48,0,0,1,16.56-14.36,137.72,137.72,0,0,0,15.52,5c-.71.83-1.47,1.59-2.16,2.43a139.49,139.49,0,0,0-15.41,23.1c-1.94,4.22-4.1,8.33-5.47,12.78a79.6,79.6,0,0,0-3.28,13.44c1.74-4.29,3-8.63,5.23-12.64a107.23,107.23,0,0,1,6.41-12,218.92,218.92,0,0,1,15.85-22c1.11-1.38,2.32-2.69,3.47-4a123.18,123.18,0,0,0,20.28,2.85,117.32,117.32,0,0,0,25.74-1.4c-.59,1.31-1.18,2.61-1.71,3.93a115.74,115.74,0,0,0-6.08,21.47,148.09,148.09,0,0,0-2.29,21.65c-.16,6.86-.38,13.73-.92,20.56-1,13.66-2.81,27.28-6.49,40.45s-9.41,25.92-18.43,36.6c10.27-9.48,17.86-21.83,23.26-34.91s9.07-26.9,11.8-40.77c1.41-6.93,2.5-13.91,3.52-20.9,1-6.78,1.79-13.25,3.54-19.62a100.65,100.65,0,0,1,6.54-18.2,68.92,68.92,0,0,1,4.6-8.13,42.42,42.42,0,0,1,2.63-3.64c.45-.58.91-1.1,1.37-1.62s1.53-1.67,1.53-1.67c4.42-1.16,7.78-2.16,12.14-3.55a129.39,129.39,0,0,0,28.2-13.18,73.23,73.23,0,0,0,12.46-9.85,49.88,49.88,0,0,0,5.36-6.11,31.56,31.56,0,0,0,3.88-6.55,25.44,25.44,0,0,0,4.3-4.89,15,15,0,0,0,2.61-7.78,12.14,12.14,0,0,0-3.11-8.51A18,18,0,0,0,405.19,263.85Z" transform="translate(0 -12.97)"/><path class="cls-10" d="M203.33,170.76a47,47,0,0,0-10.72,9.79,74.91,74.91,0,0,0-8.14,12.1,84.44,84.44,0,0,0-5.71,13.4c-.8,2.29-1.34,4.66-2,7-.5,2.37-1,4.74-1.35,7.12,1.6-4.56,3.08-9.12,4.92-13.54a141.09,141.09,0,0,1,6-13,114.34,114.34,0,0,1,7.55-12.1A72.66,72.66,0,0,1,203.33,170.76Z" transform="translate(0 -12.97)"/><path class="cls-10" d="M339.58,156.81a23.86,23.86,0,0,0-4.14-4.5,11.47,11.47,0,0,0-2.65-1.58,3.72,3.72,0,0,0-3-.26c2-.18,3.63,1.29,4.93,2.62a22.66,22.66,0,0,1,3.47,4.64,67.55,67.55,0,0,1,5,10.6c2.83,7.41,5.75,14.81,9.32,22a227.79,227.79,0,0,0-7.31-22.78A47.07,47.07,0,0,0,339.58,156.81Z" transform="translate(0 -12.97)"/><path class="cls-10" d="M346.5,235.41a37.71,37.71,0,0,0-9.62,3.28,83.07,83.07,0,0,0-17.05,10.92l.11-.08a102.06,102.06,0,0,1-9.3,5.79c-1,.52-1.95,1-2.94,1.43a16.5,16.5,0,0,0-1.53-24l.14,0a18.2,18.2,0,0,0-9.86-5A20.8,20.8,0,0,0,285,229a25.57,25.57,0,0,0-9.06,6.87,45.23,45.23,0,0,0-3.16,4.56,52.75,52.75,0,0,0-2.15,5.05c1.4-1.22,2.62-2.51,3.84-3.77l3.85-3.47c1.28-1,2.56-2,3.88-2.84a16.42,16.42,0,0,0,0,20.14,13.75,13.75,0,0,0,7.56,6.33,21.89,21.89,0,0,0,11.63.39c7.65-1.7,14.28-5.81,20.35-10.24l0,0,.06,0a103.24,103.24,0,0,1,16-11.42,46.49,46.49,0,0,1,9-3.9,16,16,0,0,1,9.67-.21C353.45,234.77,349.81,234.83,346.5,235.41Z" transform="translate(0 -12.97)"/><path class="cls-10" d="M344.45,239.51a29.32,29.32,0,0,0-5.25,3.22,25.81,25.81,0,0,0-4.47,4.21c3.67-1.84,7.09-3.83,10.65-5.49a39,39,0,0,1,5.39-2.18,14.88,14.88,0,0,1,5.79-.74,9.66,9.66,0,0,0-6.14-.88A19.77,19.77,0,0,0,344.45,239.51Z" transform="translate(0 -12.97)"/></g><g id="augen_nase" data-name="augen / nase"><circle class="cls-11" cx="299.76" cy="232.5" r="5.25"/><path class="cls-11" d="M404,282.59c.15-1.2.43-2.3.64-3.37a12.28,12.28,0,0,0,.34-2.94c.07-.44-.78-1.62-1.21-2.53a28.9,28.9,0,0,1-1.55-3.1,10.92,10.92,0,0,1,2.87,2.09c.81.93,1.68,1.49,2,3.34a6.92,6.92,0,0,1-.93,3.7A9.49,9.49,0,0,1,404,282.59Z" transform="translate(0 -12.97)"/></g></svg>