<svg width="127" height="91" viewBox="0 0 127 91" fill="none" xmlns="http://www.w3.org/2000/svg">
<path d="M19.1 86.3C10.2 52.7 2.69998 19.6 0.599976 4.70002L0.0999756 0.900024L11.8 1.20002L23.5 1.50002L23.8 5.00002C24.1 9.60002 31.1 44.1 31.9 45.8C32.3 46.5 35.5 36.7 39.1 24L45.5 0.900024L54 1.20002L62.5 1.50002L68.6 23.8C72 36 75 46.3 75.2 46.6C75.7 47 83.1 13.4 84.5 4.80002L85.1 1.00002H96.6H108.1L107.6 4.30002C107.3 6.00002 106.3 11.7 105.4 16.9C104.6 22.1 100.3 40.4 95.9 57.5C91.6 74.7 88 89 88 89.4C88 89.7 83.4 90 77.7 90H67.4L62.1 71.4C54.6 45 53.9 42.7 53.4 43.3C53.1 43.6 50.1 54.1 46.6 66.6L40.4 89.5L30.2 89.8L20.1 90.1L19.1 86.3Z" fill="#FF7500"/>
<path d="M107.1 87.5C103.1 84.1 101.5 79.1 103 74.5C106.7 63.2 122.3 63.2 126 74.5C128.5 82 122.6 90 114.5 90C111.3 90 109.4 89.3 107.1 87.5Z" fill="#FF7500"/>
</svg>
