<svg width="235" height="276" viewBox="0 0 235 276" fill="none" xmlns="http://www.w3.org/2000/svg">
<path d="M21.7139 54.4138C19.3206 54.4138 17.3066 55.2537 16.2951 56.8974C15.2474 58.5953 15.41 60.7809 16.5208 62.9936L43.3891 109.505C43.4343 109.595 43.4343 109.65 43.3891 109.731L1.16757 184.239C0.0657405 186.434 0.119929 188.638 1.16757 190.336C2.17908 191.97 3.96731 193.045 6.36062 193.045H46.0985C52.0412 193.045 54.9041 189.035 56.9362 185.368C56.9362 185.368 98.2275 112.341 99.835 109.505C99.6725 109.243 72.5152 61.8647 72.5152 61.8647C70.5374 58.3425 67.548 54.4138 61.4518 54.4138H21.7139Z" fill="#005A5F"/>
<path d="M188.656 0C182.723 0 180.149 3.73909 178.017 7.56839C178.017 7.56839 92.4091 159.385 89.5913 164.371C89.7358 164.642 146.055 267.96 146.055 267.96C148.024 271.482 151.068 275.528 157.155 275.528H196.848C199.241 275.528 201.11 274.625 202.122 272.991C203.178 271.293 203.152 269.053 202.041 266.849L146.019 164.497C145.965 164.416 145.965 164.316 146.019 164.235L234.003 8.67018C235.104 6.47557 235.132 4.23576 234.084 2.53786C233.072 0.903188 231.194 0 228.8 0H188.656Z" fill="#D4D600"/>
</svg>
